<mxfile host="65bd71144e">
    <diagram id="v7AksFhCZnxHJOZwIDM-" name="商品閲覧">
        <mxGraphModel dx="505" dy="467" grid="1" gridSize="10" guides="1" tooltips="1" connect="1" arrows="1" fold="1" page="1" pageScale="1" pageWidth="827" pageHeight="1169" math="0" shadow="0">
            <root>
                <mxCell id="0"/>
                <mxCell id="1" parent="0"/>
                <mxCell id="2" value="ユーザー" style="shape=umlActor;verticalLabelPosition=bottom;verticalAlign=top;" parent="1" vertex="1">
                    <mxGeometry x="50" y="50" width="30" height="60" as="geometry"/>
                </mxCell>
                <mxCell id="11" style="endArrow=open;entryX=-0.004;entryY=0.495;entryDx=0;entryDy=0;entryPerimeter=0;" parent="1" source="2" target="17" edge="1">
                    <mxGeometry relative="1" as="geometry">
                        <mxPoint x="210" y="64.15300546448088" as="targetPoint"/>
                    </mxGeometry>
                </mxCell>
                <mxCell id="21" value="商品を選択する" style="edgeLabel;html=1;align=center;verticalAlign=middle;resizable=0;points=[];" vertex="1" connectable="0" parent="11">
                    <mxGeometry x="-0.0992" relative="1" as="geometry">
                        <mxPoint as="offset"/>
                    </mxGeometry>
                </mxCell>
                <mxCell id="12" style="endArrow=open;exitX=1;exitY=0.44;exitDx=0;exitDy=0;exitPerimeter=0;entryX=0.028;entryY=0.502;entryDx=0;entryDy=0;entryPerimeter=0;" parent="1" source="17" target="18" edge="1">
                    <mxGeometry relative="1" as="geometry">
                        <mxPoint x="420" y="65" as="sourcePoint"/>
                        <mxPoint x="410" y="65" as="targetPoint"/>
                    </mxGeometry>
                </mxCell>
                <mxCell id="22" value="商品IDを送信する" style="edgeLabel;html=1;align=center;verticalAlign=middle;resizable=0;points=[];" vertex="1" connectable="0" parent="12">
                    <mxGeometry x="-0.1209" y="1" relative="1" as="geometry">
                        <mxPoint as="offset"/>
                    </mxGeometry>
                </mxCell>
                <mxCell id="13" style="endArrow=classic;startArrow=classic;exitX=1.009;exitY=0.543;exitDx=0;exitDy=0;exitPerimeter=0;entryX=0;entryY=0.5;entryDx=0;entryDy=0;" parent="1" source="18" target="19" edge="1">
                    <mxGeometry relative="1" as="geometry">
                        <mxPoint x="559.9808856304262" y="66.24920356793444" as="sourcePoint"/>
                        <mxPoint x="610.034500394747" y="68.56165601894787" as="targetPoint"/>
                    </mxGeometry>
                </mxCell>
                <mxCell id="23" value="商品詳細を取得する" style="edgeLabel;html=1;align=center;verticalAlign=middle;resizable=0;points=[];" vertex="1" connectable="0" parent="13">
                    <mxGeometry x="-0.0118" y="1" relative="1" as="geometry">
                        <mxPoint as="offset"/>
                    </mxGeometry>
                </mxCell>
                <mxCell id="14" style="endArrow=open;exitX=0.208;exitY=0.94;exitDx=0;exitDy=0;entryX=1;entryY=0.5;entryDx=0;entryDy=0;entryPerimeter=0;exitPerimeter=0;" parent="1" source="18" target="20" edge="1">
                    <mxGeometry relative="1" as="geometry">
                        <mxPoint x="520" y="110" as="sourcePoint"/>
                        <mxPoint x="286" y="198.34241768733625" as="targetPoint"/>
                    </mxGeometry>
                </mxCell>
                <mxCell id="24" value="詳細情報を表示する" style="edgeLabel;html=1;align=center;verticalAlign=middle;resizable=0;points=[];" vertex="1" connectable="0" parent="14">
                    <mxGeometry x="-0.1357" y="3" relative="1" as="geometry">
                        <mxPoint as="offset"/>
                    </mxGeometry>
                </mxCell>
                <mxCell id="15" style="endArrow=open;exitX=0.159;exitY=0.327;exitDx=0;exitDy=0;exitPerimeter=0;" parent="1" source="20" target="2" edge="1">
                    <mxGeometry relative="1" as="geometry">
                        <mxPoint x="210" y="183.00546448087437" as="sourcePoint"/>
                    </mxGeometry>
                </mxCell>
                <mxCell id="25" value="商品詳細を閲覧する" style="edgeLabel;html=1;align=center;verticalAlign=middle;resizable=0;points=[];" vertex="1" connectable="0" parent="15">
                    <mxGeometry x="-0.2448" y="-4" relative="1" as="geometry">
                        <mxPoint as="offset"/>
                    </mxGeometry>
                </mxCell>
                <mxCell id="17" value="検索結果画面" style="shape=umlBoundary;whiteSpace=wrap;html=1;fillColor=#d5e8d4;strokeColor=#82b366;" parent="1" vertex="1">
                    <mxGeometry x="210" y="24" width="100" height="80" as="geometry"/>
                </mxCell>
                <mxCell id="18" value="商品詳細処理" style="ellipse;shape=umlControl;whiteSpace=wrap;html=1;fillColor=#f8cecc;strokeColor=#b85450;" parent="1" vertex="1">
                    <mxGeometry x="442" y="14" width="80" height="90" as="geometry"/>
                </mxCell>
                <mxCell id="19" value="商品データベース" style="ellipse;shape=umlEntity;whiteSpace=wrap;html=1;fillColor=#dae8fc;strokeColor=#6c8ebf;" parent="1" vertex="1">
                    <mxGeometry x="673" y="24" width="80" height="80" as="geometry"/>
                </mxCell>
                <mxCell id="20" value="商品詳細画面" style="shape=umlBoundary;whiteSpace=wrap;html=1;fillColor=#d5e8d4;strokeColor=#82b366;" parent="1" vertex="1">
                    <mxGeometry x="190" y="150" width="100" height="80" as="geometry"/>
                </mxCell>
            </root>
        </mxGraphModel>
    </diagram>
</mxfile>